# Blender 5.0.1
# www.blender.org
mtllib cube.mtl
o Cube
v 1.401521 0.691641 -0.746572
v 1.111528 -1.260127 -0.420221
v 0.760706 1.096328 1.104261
v 0.470712 -0.855440 1.430613
v -0.470712 0.855440 -1.430613
v -0.760706 -1.096328 -1.104261
v -1.111528 1.260127 0.420221
v -1.401521 -0.691641 0.746572
vn 0.1450 0.9759 -0.1632
vn -0.3204 0.2023 0.9254
vn -0.9361 0.0819 -0.3420
vn -0.1450 -0.9759 0.1632
vn 0.9361 -0.0819 0.3420
vn 0.3204 -0.2023 -0.9254
vt 0.625000 0.500000
vt 0.875000 0.500000
vt 0.875000 0.750000
vt 0.625000 0.750000
vt 0.375000 0.750000
vt 0.625000 1.000000
vt 0.375000 1.000000
vt 0.375000 0.000000
vt 0.625000 0.000000
vt 0.625000 0.250000
vt 0.375000 0.250000
vt 0.125000 0.500000
vt 0.375000 0.500000
vt 0.125000 0.750000
s 0
usemtl Material
f 1/1/1 5/2/1 7/3/1 3/4/1
f 4/5/2 3/4/2 7/6/2 8/7/2
f 8/8/3 7/9/3 5/10/3 6/11/3
f 6/12/4 2/13/4 4/5/4 8/14/4
f 2/13/5 1/1/5 3/4/5 4/5/5
f 6/11/6 5/10/6 1/1/6 2/13/6
